<svg width="50" height="50" viewBox="0 0 50 50" fill="none" xmlns="http://www.w3.org/2000/svg">
<path fill-rule="evenodd" clip-rule="evenodd" d="M43.4938 10.3863C44.1938 9.79707 45.2342 9.8926 45.8176 10.5997L44.55 11.6667C45.8176 10.5997 45.8172 10.599 45.8176 10.5997L45.82 10.6028L45.8229 10.6062L45.8295 10.6142L45.846 10.6348C45.8585 10.6506 45.8742 10.6705 45.8924 10.6944C45.9292 10.7424 45.9771 10.8068 46.0345 10.8881C46.1494 11.0506 46.3025 11.2804 46.4805 11.58C46.8367 12.1796 47.2919 13.0578 47.74 14.235C48.638 16.5936 49.5 20.1298 49.5 24.9999C49.5 29.8701 48.638 33.4063 47.74 35.765C47.2919 36.9421 46.8367 37.8203 46.4805 38.4198C46.3025 38.7196 46.1494 38.9494 46.0345 39.1118C45.9771 39.1932 45.9292 39.2576 45.8924 39.3054C45.8742 39.3294 45.8585 39.3494 45.846 39.3652L45.8295 39.3856L45.8229 39.3936L45.82 39.3972C45.8196 39.3978 45.8176 39.4003 44.55 38.3332L45.8176 39.4003C45.2342 40.1074 44.1938 40.2029 43.4938 39.6136C42.797 39.0272 42.7 37.9834 43.2742 37.2765C43.2755 37.2747 43.2779 37.2714 43.2817 37.2665C43.2933 37.2514 43.3164 37.2207 43.3492 37.1743C43.4148 37.0816 43.5195 36.9261 43.6508 36.705C43.9133 36.2627 44.2833 35.5576 44.66 34.5683C45.4119 32.5937 46.2 29.4632 46.2 24.9999C46.2 20.5368 45.4119 17.4064 44.66 15.4316C44.2833 14.4423 43.9133 13.7371 43.6508 13.295C43.5195 13.0739 43.4148 12.9182 43.3492 12.8255C43.3164 12.7792 43.2933 12.7486 43.2817 12.7334C43.2779 12.7285 43.2755 12.7251 43.274 12.7235M39.3489 16.8767C40.1456 16.4297 41.1501 16.7196 41.5927 17.5242L40.1502 18.3336C41.5927 17.5242 41.5923 17.5235 41.5927 17.5242L41.5943 17.5271L41.596 17.5302L41.5996 17.537L41.6081 17.5528L41.6293 17.5936C41.6453 17.6248 41.6647 17.6643 41.6873 17.7121C41.7324 17.8077 41.7894 17.9366 41.8541 18.1C41.9837 18.427 42.1434 18.8914 42.2985 19.503C42.6094 20.7273 42.9002 22.5333 42.9002 25.0001C42.9002 27.4672 42.6094 29.2732 42.2985 30.4974C42.1434 31.109 41.9837 31.5734 41.8541 31.9003C41.7894 32.0639 41.7324 32.1928 41.6873 32.2883C41.6647 32.3361 41.6453 32.3757 41.6293 32.4068L41.6081 32.4477L41.5996 32.4634L41.596 32.4703L41.5943 32.4734C41.5938 32.4741 41.5927 32.4763 40.1502 31.6668L41.5927 32.4763C41.1501 33.281 40.1456 33.5708 39.3489 33.1239C38.5591 32.6805 38.2703 31.6792 38.6969 30.8781L38.7079 30.8552C38.7228 30.8232 38.7516 30.7594 38.7901 30.6626C38.8669 30.4686 38.9822 30.1412 39.1019 29.6697C39.3412 28.7272 39.6002 27.1999 39.6002 25.0001C39.6002 22.8006 39.3412 21.2733 39.1019 20.3309C38.9822 19.8591 38.8669 19.5318 38.7901 19.338C38.7516 19.241 38.7228 19.1772 38.7079 19.1452L38.6969 19.1225C38.2703 18.3212 38.5591 17.3199 39.3489 16.8767Z" fill="#336AC7"/>
<path fill-rule="evenodd" clip-rule="evenodd" d="M26.485 9.08332C24.9183 9.86219 22.9329 11.1977 20.1037 13.1067L19.6234 13.4308C19.5869 13.4555 19.5508 13.4798 19.5152 13.5038C18.6813 14.0668 18.1036 14.4567 17.4707 14.7426C16.847 15.0243 16.1914 15.2256 15.5191 15.3418C14.837 15.4597 14.145 15.4595 13.1459 15.4593C13.1033 15.4593 13.0601 15.4593 13.0163 15.4593C9.84954 15.4593 8.78063 15.4958 7.87182 15.9262C6.99363 16.342 6.05828 17.2426 5.5993 18.1144C5.1205 19.0238 5.0326 19.9559 4.86359 22.7939C4.81719 23.5726 4.79032 24.3192 4.79032 24.9999C4.79032 25.6808 4.81719 26.4272 4.86359 27.2061C5.0326 30.0441 5.1205 30.9762 5.5993 31.8856C6.05828 32.7572 6.99363 33.6579 7.87182 34.0739C8.78063 34.5042 9.84954 34.5406 13.0163 34.5406C13.0601 34.5406 13.1033 34.5406 13.1459 34.5406C14.145 34.5403 14.837 34.5403 15.5191 34.6582C16.1914 34.7743 16.847 34.9756 17.4707 35.2573C18.1036 35.5431 18.6813 35.933 19.5152 36.4961C19.5508 36.5201 19.5869 36.5445 19.6234 36.5692L20.1037 36.8932C22.9329 38.8022 24.9183 40.1377 26.485 40.9166C28.0474 41.6934 28.8288 41.7246 29.3752 41.5335C29.6766 41.4285 29.9716 41.2747 30.2322 41.0875C30.7073 40.7456 31.1405 40.0843 31.4452 38.3528C31.7512 36.6132 31.864 34.207 32.0199 30.7705C32.1342 28.2572 32.2097 26.1488 32.2097 24.9999C32.2097 23.8512 32.1342 21.7426 32.0199 19.2294C31.864 15.7931 31.7512 13.3867 31.4452 11.6472C31.1405 9.91558 30.7073 9.25431 30.2322 8.91253C29.9716 8.72515 29.6766 8.57155 29.3752 8.46629C28.8288 8.27541 28.0474 8.30655 26.485 9.08332ZM25.0473 6.05448C26.8592 5.15368 28.6432 4.65267 30.4379 5.27946C31.0344 5.48774 31.6084 5.78673 32.1239 6.15754C33.6728 7.27144 34.3284 9.03144 34.6836 11.0506C35.0328 13.0358 35.1521 15.6667 35.3008 18.944L35.3067 19.0731C35.4204 21.576 35.5 23.7607 35.5 24.9999C35.5 26.2391 35.4204 28.424 35.3067 30.9268L35.3008 31.0559C35.1521 34.3331 35.0328 36.9641 34.6836 38.9492C34.3284 40.9685 33.6728 42.7285 32.1239 43.8424C31.6084 44.2132 31.0344 44.5122 30.4379 44.7206C28.6432 45.3473 26.8592 44.8463 25.0473 43.9454C23.2626 43.0582 21.0974 41.5971 18.3975 39.7754L17.8123 39.3803C16.8297 38.7174 16.4918 38.4958 16.1422 38.338C15.768 38.1689 15.3746 38.0482 14.9713 37.9783C14.5945 37.9132 14.1932 37.9079 13.0163 37.9079C12.897 37.9079 12.7793 37.9081 12.6631 37.9081C9.99375 37.9094 8.13897 37.9105 6.49023 37.1298C4.96616 36.4083 3.49922 34.9956 2.70268 33.4828C1.84145 31.8469 1.7404 30.1364 1.59671 27.7038C1.59101 27.6073 1.58524 27.5099 1.57936 27.4111C1.53012 26.5843 1.5 25.7667 1.5 24.9999C1.5 24.2333 1.53012 23.4157 1.57936 22.5889C1.58524 22.4901 1.59101 22.3925 1.59671 22.296C1.7404 19.8636 1.84145 18.153 2.70268 16.5172C3.49922 15.0042 4.96616 13.5917 6.49023 12.8701C8.13897 12.0894 9.99375 12.0904 12.6631 12.0919C12.7793 12.0919 12.897 12.092 13.0163 12.092C14.1932 12.092 14.5945 12.0866 14.9713 12.0215C15.3746 11.9518 15.768 11.831 16.1422 11.662C16.4918 11.5041 16.8297 11.2825 17.8123 10.6195L18.3975 10.2246C21.0975 8.40276 23.2626 6.94167 25.0473 6.05448Z" fill="#336AC7"/>
</svg>
