<svg width="18" height="15" viewBox="0 0 18 15" fill="none" xmlns="http://www.w3.org/2000/svg">
<path d="M5.77353 13.8131C5.69338 13.8136 5.61393 13.7971 5.53973 13.7644C5.46552 13.7318 5.39804 13.6836 5.34113 13.6228L0.749098 8.67469C0.635667 8.55173 0.571999 8.3854 0.571999 8.21203C0.571999 8.03866 0.635667 7.87233 0.749098 7.74937C0.805715 7.68786 0.873073 7.63904 0.947288 7.60572C1.0215 7.57241 1.10111 7.55526 1.1815 7.55526C1.2619 7.55526 1.3415 7.57241 1.41572 7.60572C1.48993 7.63904 1.55729 7.68786 1.61391 7.74937L5.77353 12.2316L15.9077 1.31156C16.0218 1.18933 16.1761 1.12073 16.337 1.12073C16.4979 1.12073 16.6523 1.18933 16.7664 1.31156C16.8235 1.37257 16.8688 1.44515 16.8997 1.52512C16.9306 1.60509 16.9465 1.69086 16.9465 1.7775C16.9465 1.86413 16.9306 1.94991 16.8997 2.02988C16.8688 2.10985 16.8235 2.18243 16.7664 2.24344L6.19985 13.6228C6.08641 13.744 5.9333 13.8124 5.77353 13.8131Z" fill="#38B6FF" stroke="#38B6FF" stroke-linejoin="round"/>
</svg>
