<svg width="20" height="20" viewBox="0 0 20 20" fill="none" xmlns="http://www.w3.org/2000/svg">
<g clip-path="url(#clip0_13_31)">
<path d="M8.26001 5.04C8.02126 2.29375 5.15626 0.946251 5.03501 0.891251C4.92166 0.837968 4.79464 0.820944 4.67126 0.842501C1.36376 1.39125 0.86626 3.31625 0.84626 3.39625C0.819049 3.50773 0.823377 3.62459 0.85876 3.73375C4.80376 15.9738 13.0025 18.2425 15.6975 18.9888C15.905 19.0463 16.0763 19.0925 16.2063 19.135C16.3546 19.1835 16.5158 19.1741 16.6575 19.1088C16.74 19.0713 18.6875 18.1538 19.1638 15.1613C19.1849 15.0306 19.1639 14.8966 19.1038 14.7788C19.0613 14.6963 18.0425 12.7575 15.2175 12.0725C15.1217 12.048 15.0213 12.0471 14.9251 12.07C14.8288 12.0929 14.7396 12.1388 14.665 12.2038C13.7738 12.965 12.5425 13.7763 12.0113 13.86C8.45001 12.1188 6.46126 8.7775 6.38626 8.14375C6.34251 7.7875 7.15876 6.53625 8.09751 5.51875C8.15651 5.45471 8.20145 5.37903 8.22944 5.29658C8.25743 5.21412 8.26784 5.12672 8.26001 5.04Z" fill="#0F2A44"/>
</g>
<defs>
<clipPath id="clip0_13_31">
<rect width="20" height="20" fill="white"/>
</clipPath>
</defs>
</svg>
