<svg width="64" height="38" viewBox="0 0 64 38" fill="none" xmlns="http://www.w3.org/2000/svg">
<path d="M24.2674 28.3619C22.7707 19.2179 21.3143 10.0738 19.858 0.970124C19.7367 0.285331 19.4535 -0.0369251 18.7253 0.00335683C16.9859 0.0436388 15.2059 0.0436388 13.4664 0.00335683C12.5765 -0.0369251 12.3338 0.285331 12.2124 1.13125C11.6056 5.36086 10.837 9.59046 10.1898 13.8201C10.0279 14.8674 9.66386 15.3911 8.49072 15.7133C3.91952 16.9218 1.0069 19.8221 0.116935 24.5351C-0.570767 28.2813 1.85642 32.1887 5.25448 32.8332C9.01661 33.5582 12.0101 31.3024 12.8192 27.0326C13.1428 25.4616 13.3451 23.8906 13.5878 22.3196C13.9114 20.386 14.1946 20.2652 15.7723 21.4334C16.5409 22.0376 17.1881 22.7627 17.6736 23.6086C18.604 25.1796 19.049 26.9117 19.2108 28.6841C19.2917 29.53 19.6153 29.8926 20.4648 29.812C20.9098 29.7717 21.3548 29.812 21.7593 29.812C22.1639 29.812 22.5279 29.7717 22.9325 29.812C24.227 29.9731 24.4697 29.53 24.2674 28.3619ZM8.04574 26.5089C7.88393 27.2743 7.60075 28.2007 6.50852 28.1202C5.41629 28.0396 5.01176 27.1534 4.93085 26.1866C4.64768 23.7697 6.2658 21.5542 9.09752 20.5472C8.77389 22.6821 8.45027 24.6156 8.04574 26.5089ZM17.3499 16.7607C14.6396 15.6328 14.5991 15.5925 14.9228 12.6116C15.2059 10.0738 15.57 7.57637 15.8936 5.0386C15.9745 5.0386 16.0959 5.0386 16.1768 5.0386C16.7027 8.90567 17.1881 12.813 17.714 16.6801C17.5118 16.7204 17.3904 16.7607 17.3499 16.7607Z" fill="white"/>
<path d="M55.295 8.98625C55.295 8.62372 55.2141 8.30146 54.7691 8.26118C53.8791 8.26118 53.0296 8.18061 52.1396 8.38202C51.2497 8.58343 50.7238 9.18766 50.4001 10.1141C49.7934 9.06682 49.1461 8.38202 48.0539 8.10005C44.7772 7.21385 41.9859 9.22794 41.8241 12.8936C41.6623 16.6398 41.7836 20.4263 41.7836 24.2128C41.7836 24.6962 41.905 25.1796 41.9859 25.6227C42.3904 27.4757 43.3613 28.805 45.3435 29.1675C47.3257 29.5301 48.9034 28.9661 50.117 27.234C50.117 28.8453 50.4001 30.4163 50.0361 31.9873C49.8338 32.7123 49.3888 33.1957 48.6607 33.2763C47.973 33.3568 47.2043 33.1554 47.083 32.5109C46.8403 31.1413 45.8694 31.383 44.9794 31.383C44.2108 31.383 43.4018 31.4233 42.6332 31.383C41.905 31.3427 41.7027 31.6247 41.7432 32.3095C41.905 34.3236 42.8759 35.7738 44.7367 36.5794C46.2335 37.2642 47.7707 37.1836 49.3484 37.1031C52.706 36.9419 54.6477 35.2904 54.9309 31.9873C55.6186 24.3337 55.1332 16.6801 55.295 8.98625ZM50.117 23.0849C50.0361 24.1323 49.5911 25.0185 48.337 24.9379C47.083 24.8573 46.7998 23.8906 46.7998 22.8835C46.7594 21.4737 46.7998 20.0638 46.7998 18.6942C46.7998 17.2441 46.7594 15.7939 46.7998 14.3438C46.8403 13.2159 47.2853 12.3297 48.5393 12.2894C49.7529 12.2491 50.117 13.1756 50.1574 14.1423C50.2788 17.0829 50.3597 20.1041 50.117 23.0849Z" fill="white"/>
<path d="M31.1039 10.0739C31.5894 9.59049 31.9939 9.10711 32.4793 8.74457C35.392 6.69019 39.0732 8.30147 39.4373 11.8463C39.5991 13.5381 39.5586 15.23 39.5586 16.9218C39.5586 20.7889 39.5182 24.656 39.5991 28.523C39.5991 29.5301 39.3159 29.8523 38.3046 29.8523C34.5829 29.8523 34.5829 29.8926 34.5829 26.1464C34.5829 22.4807 34.5829 18.8151 34.5829 15.1091C34.5829 14.5855 34.5829 14.0215 34.502 13.5381C34.3402 12.7728 33.8547 12.2491 32.9648 12.2491C32.1152 12.2491 31.5489 12.6922 31.3871 13.4576C31.2253 14.2632 31.1444 15.0688 31.1444 15.9148C31.1039 20.1041 31.1039 24.3337 31.1444 28.523C31.1444 29.5301 30.8207 29.812 29.8094 29.8523C26.0473 29.8523 26.0473 29.8926 26.0473 26.227C26.0473 20.7083 26.0877 15.1897 26.0068 9.71134C26.0068 8.54316 26.3305 8.22091 27.4631 8.26119C29.0004 8.30147 30.5376 8.18062 31.1039 10.0739Z" fill="white"/>
<path d="M62.8194 19.0165C62.8194 22.1987 62.779 25.381 62.8599 28.5633C62.8599 29.5301 62.5362 29.7718 61.6058 29.812C57.8437 29.8926 57.8437 29.8926 57.8437 26.1867C57.8437 20.6278 57.8841 15.0688 57.8032 9.50993C57.8032 8.50288 58.0864 8.2209 59.0977 8.2209C62.8194 8.2209 62.8194 8.18062 62.8194 11.9268C62.8194 14.3035 62.8194 16.6398 62.8194 19.0165Z" fill="white"/>
<path d="M60.3923 6.2068C58.855 6.24709 57.6819 5.15947 57.601 3.62876C57.5201 2.09804 58.7337 0.849303 60.2709 0.809021C61.8486 0.809021 63.1026 2.01748 63.1026 3.50791C63.0622 4.99835 61.889 6.2068 60.3923 6.2068Z" fill="white"/>
</svg>
